<?xml version="1.0" standalone="no"?><!DOCTYPE svg PUBLIC "-//W3C//DTD SVG 1.1//EN" "http://www.w3.org/Graphics/SVG/1.1/DTD/svg11.dtd"><svg t="1580471916134" class="icon" viewBox="0 0 1024 1024" version="1.1" xmlns="http://www.w3.org/2000/svg" p-id="5025" xmlns:xlink="http://www.w3.org/1999/xlink" width="64" height="64"><defs><style type="text/css"></style></defs><path d="M238.886227 196.500373l0 193.07946L64.665277 512l174.22095 117.729332L238.886227 827.499627 959.332676 827.499627 959.332676 196.500373 238.886227 196.500373zM436.061982 596.759429c-49.730635 0-90.055039-40.33873-90.055039-90.057085 0-49.745984 40.324404-90.056062 90.055039-90.056062 49.735751 0 90.057085 40.311101 90.057085 90.056062C526.119067 556.420699 485.79671 596.759429 436.061982 596.759429zM770.102894 596.759429c-49.732681 0-90.056062-40.33873-90.056062-90.057085 0-49.745984 40.323381-90.056062 90.056062-90.056062s90.055039 40.311101 90.055039 90.056062C860.157933 556.420699 819.835575 596.759429 770.102894 596.759429z" p-id="5026" fill="#1296db"></path></svg>